<svg width="252" height="126" viewBox="0 0 252 126" fill="none" xmlns="http://www.w3.org/2000/svg">
<path d="M212.854 3.94644C191.262 3.94644 173.708 21.4766 173.708 43.039C173.708 52.9623 177.46 62.0277 183.588 68.9197L179.264 73.2951C175.054 67.9759 168.554 64.5729 161.251 64.5729C149.51 64.5729 139.831 73.3523 138.428 84.7054H128.749V56.4512H137.483C145.387 56.4512 151.801 50.0168 151.801 42.1525V14.2987C151.801 6.40581 145.387 0 137.483 0H114.288C106.413 0 99.9695 6.40581 99.9695 14.2987V42.1525C99.9695 50.0168 106.413 56.4512 114.288 56.4512H123.022V84.7054H113.572C112.169 73.3523 102.49 64.5729 90.7486 64.5729C83.4464 64.5729 76.9459 67.9759 72.7364 73.2951L68.4123 68.9197C74.5405 62.0277 78.2918 52.9623 78.2918 43.039C78.2918 21.4766 60.7377 3.94644 39.1459 3.94644C17.5541 3.94644 0 21.4766 0 43.039C0 64.6015 17.5541 82.1316 39.1459 82.1316C48.7391 82.1316 57.5304 78.6714 64.3173 72.9233L69.6723 78.3282C68.4409 81.1593 67.725 84.2765 67.725 87.5651C67.725 100.234 78.0627 110.557 90.7486 110.557C102.49 110.557 112.169 101.749 113.572 90.4249H123.022V123.14C123.022 124.742 124.31 126 125.885 126C127.46 126 128.749 124.742 128.749 123.14V90.4249H138.428C139.831 101.749 149.51 110.557 161.251 110.557C173.937 110.557 184.275 100.234 184.275 87.5651C184.275 84.2765 183.559 81.1593 182.328 78.3282L187.683 72.9233C194.47 78.6714 203.261 82.1316 212.854 82.1316C234.446 82.1316 252 64.6015 252 43.039C252 21.4766 234.446 3.94644 212.854 3.94644ZM39.1459 31.0853C45.7609 31.0853 51.1159 36.4331 51.1159 43.039C51.1159 49.645 45.7609 54.9927 39.1459 54.9927C32.5309 54.9927 27.1759 49.6164 27.1759 43.039C27.1759 36.4617 32.5595 31.0853 39.1459 31.0853ZM90.7486 82.4748C93.555 82.4748 95.8173 84.7626 95.8173 87.5651C95.8173 90.3677 93.555 92.6269 90.7486 92.6269C87.9423 92.6269 85.68 90.3391 85.68 87.5651C85.68 84.7912 87.9423 82.4748 90.7486 82.4748ZM114.288 50.7317C110.107 50.7317 106.613 47.7004 105.869 43.6968H145.902C145.186 47.7004 141.693 50.7317 137.483 50.7317H114.288ZM161.251 82.4748C164.058 82.4748 166.32 84.7626 166.32 87.5651C166.32 90.3677 164.058 92.6269 161.251 92.6269C158.445 92.6269 156.183 90.3391 156.183 87.5651C156.183 84.7912 158.445 82.4748 161.251 82.4748ZM212.854 31.0853C219.44 31.0853 224.824 36.4331 224.824 43.039C224.824 49.645 219.44 54.9927 212.854 54.9927C206.268 54.9927 200.884 49.6164 200.884 43.039C200.884 36.4617 206.239 31.0853 212.854 31.0853Z" fill="url(#paint0_linear_1_154)" fill-opacity="0.17"/>
<defs>
<linearGradient id="paint0_linear_1_154" x1="126" y1="0" x2="126" y2="126" gradientUnits="userSpaceOnUse">
<stop stop-color="#5B4ACA"/>
<stop offset="1" stop-color="#08D3F2"/>
</linearGradient>
</defs>
</svg>
