<svg width="83" height="64" viewBox="0 0 83 64" fill="none" xmlns="http://www.w3.org/2000/svg">
<path d="M6.1562 0.8479C2.9092 0.8479 0 3.75959 0 7.00409V59.0041C0 60.3461 0.43174 61.3419 1.125 62.0353C1.81826 62.7288 2.8134 63.1603 4.1562 63.1603H78.1562C79.499 63.1603 80.4942 62.7288 81.1874 62.0353C81.8807 61.3419 82.3124 60.3461 82.3124 59.0041V25.1601C82.3076 25.1081 82.3076 25.0558 82.3124 25.0038C82.3124 23.9864 82.0782 23.1736 81.6561 22.535C81.5182 22.3232 81.3607 22.1459 81.1874 21.9725C80.4941 21.2791 79.499 20.8475 78.1562 20.8475H45.1562C45.1146 20.8506 45.0728 20.8506 45.0312 20.8475C44.9783 20.842 44.9259 20.8316 44.875 20.8163C44.8197 20.7908 44.7673 20.7594 44.7187 20.7227C44.6974 20.7131 44.6766 20.7027 44.6562 20.6914C44.6343 20.6717 44.6134 20.6508 44.5937 20.6289C44.5724 20.6194 44.5516 20.609 44.5312 20.5977C44.531 20.5873 44.531 20.5769 44.5312 20.5665C44.5099 20.557 44.4891 20.5466 44.4687 20.5353C44.4685 20.5249 44.4685 20.5145 44.4687 20.5042C44.4468 20.4844 44.4259 20.4636 44.4062 20.4417C44.3802 20.3918 44.3593 20.3394 44.3437 20.2854L40.7812 10.2854C40.781 10.275 40.781 10.2645 40.7812 10.2542L39.3437 6.2854C38.1499 2.9428 34.602 0.8479 31.1562 0.8479H6.1562ZM42.8122 10.8479L45.781 19.1604H78.156C78.3692 19.1604 78.5747 19.1746 78.781 19.1916C79.197 19.226 79.5875 19.3067 79.9685 19.4103C80.0619 19.4352 80.1587 19.4439 80.2498 19.4728C80.3254 19.4972 80.3946 19.5394 80.4685 19.5665C80.6377 19.6276 80.8087 19.71 80.9685 19.7853C80.997 19.7987 81.0341 19.8027 81.0622 19.8165C81.1969 19.8847 81.3412 19.9568 81.4684 20.0352C81.4893 20.0479 81.5103 20.0535 81.5309 20.0664C81.6641 20.1509 81.7817 20.252 81.9059 20.3477C81.9343 20.3694 81.9717 20.3879 81.9996 20.4102C82.1081 20.4967 82.2114 20.5649 82.3121 20.6602V16.754C82.3121 13.4707 79.6891 10.8478 76.4059 10.8478L42.8122 10.8479Z" fill="white"/>
</svg>
