<svg width="58" height="58" viewBox="0 0 58 58" fill="none" xmlns="http://www.w3.org/2000/svg">
<path d="M53.2973 0H4.7027C3.45591 0.00145205 2.26061 0.49738 1.37899 1.37899C0.49738 2.26061 0.00145205 3.45591 0 4.7027V26.6486C0 27.0644 0.165154 27.4631 0.45913 27.7571C0.753106 28.0511 1.15182 28.2162 1.56757 28.2162C1.98331 28.2162 2.38203 28.0511 2.67601 27.7571C2.96998 27.4631 3.13514 27.0644 3.13514 26.6486V4.7027C3.13514 4.28696 3.30029 3.88824 3.59426 3.59426C3.88824 3.30029 4.28696 3.13514 4.7027 3.13514H53.2973C53.713 3.13514 54.1118 3.30029 54.4057 3.59426C54.6997 3.88824 54.8649 4.28696 54.8649 4.7027V26.6486C54.8649 27.0644 55.03 27.4631 55.324 27.7571C55.618 28.0511 56.0167 28.2162 56.4324 28.2162C56.8482 28.2162 57.2469 28.0511 57.5409 27.7571C57.8348 27.4631 58 27.0644 58 26.6486V4.7027C57.9986 3.45591 57.5026 2.26061 56.621 1.37899C55.7394 0.49738 54.5441 0.00145205 53.2973 0Z" fill="white"/>
<path d="M41.5405 13.2717C41.1765 12.7926 40.7062 12.4046 40.1666 12.1383C39.627 11.872 39.033 11.7347 38.4313 11.7371H38.4054C37.7991 11.7387 37.2015 11.8821 36.6605 12.1559C36.1195 12.4298 35.6501 12.8264 35.2899 13.3141L23.0432 29.7539L15.8583 24.2596C15.1235 23.6944 14.2117 23.409 13.2858 23.4544C12.36 23.4997 11.4804 23.873 10.8045 24.5073L1.24543 33.426C0.853305 33.7928 0.540495 34.2362 0.326295 34.7286C0.112095 35.221 0.00104753 35.7521 0 36.2891V42.3243C0 42.74 0.165154 43.1387 0.45913 43.4327C0.753106 43.7267 1.15182 43.8918 1.56757 43.8918C1.98331 43.8918 2.38203 43.7267 2.67601 43.4327C2.96998 43.1387 3.13514 42.74 3.13514 42.3243V36.2891C3.13507 36.1817 3.1571 36.0754 3.19984 35.9768C3.24258 35.8783 3.30513 35.7895 3.38359 35.7162L12.9411 26.7998C13.0765 26.6736 13.2522 26.5994 13.4372 26.5904C13.6221 26.5813 13.8042 26.6381 13.9514 26.7505L25.9291 35.9098C26.0927 36.0348 26.2793 36.1264 26.4782 36.1794C26.6772 36.2323 26.8846 36.2456 27.0887 36.2184C27.2928 36.1911 27.4895 36.124 27.6676 36.0207C27.8458 35.9175 28.0018 35.7802 28.1269 35.6166C28.2519 35.4531 28.3435 35.2665 28.3965 35.0675C28.4494 34.8686 28.4627 34.6611 28.4355 34.4571C28.4082 34.253 28.3411 34.0563 28.2378 33.8781C28.1346 33.7 27.9973 33.544 27.8337 33.4189L25.531 31.6577L37.8035 15.1873C37.8754 15.0898 37.9693 15.0106 38.0775 14.9561C38.1858 14.9016 38.3054 14.8734 38.4266 14.8738H38.4321C38.5526 14.8728 38.6717 14.9 38.7798 14.9534C38.8879 15.0067 38.9819 15.0847 39.0544 15.181L54.7026 35.5908C54.8078 35.7277 54.8648 35.8955 54.8649 36.0681V54.081C54.8649 54.2889 54.7823 54.4882 54.6353 54.6352C54.4883 54.7822 54.289 54.8648 54.0811 54.8648H43.8919C43.4761 54.8648 43.0774 55.0299 42.7835 55.3239C42.4895 55.6179 42.3243 56.0166 42.3243 56.4324C42.3243 56.8481 42.4895 57.2468 42.7835 57.5408C43.0774 57.8348 43.4761 57.9999 43.8919 57.9999H54.0811C55.1201 57.9987 56.1161 57.5854 56.8508 56.8507C57.5855 56.1161 57.9988 55.12 58 54.081V36.0681C57.9985 35.2063 57.7143 34.3687 57.1911 33.6838L41.5405 13.2717Z" fill="white"/>
<path d="M20.3786 18.0269C21.4637 18.0269 22.5245 17.7052 23.4267 17.1023C24.329 16.4994 25.0322 15.6426 25.4474 14.64C25.8627 13.6375 25.9713 12.5344 25.7596 11.4701C25.5479 10.4058 25.0254 9.42821 24.2581 8.66091C23.4908 7.89361 22.5132 7.37108 21.4489 7.15938C20.3847 6.94768 19.2815 7.05633 18.279 7.47159C17.2765 7.88685 16.4196 8.59007 15.8167 9.49232C15.2139 10.3946 14.8921 11.4553 14.8921 12.5404C14.8937 13.995 15.4723 15.3896 16.5009 16.4181C17.5294 17.4467 18.924 18.0253 20.3786 18.0269ZM20.3786 10.1891C20.8436 10.1891 21.2982 10.327 21.6849 10.5854C22.0716 10.8437 22.373 11.211 22.5509 11.6406C22.7289 12.0703 22.7755 12.5431 22.6847 12.9992C22.594 13.4553 22.3701 13.8743 22.0412 14.2031C21.7124 14.5319 21.2934 14.7559 20.8373 14.8466C20.3812 14.9373 19.9084 14.8908 19.4788 14.7128C19.0491 14.5348 18.6819 14.2335 18.4235 13.8468C18.1651 13.4601 18.0272 13.0055 18.0272 12.5404C18.0272 11.9168 18.275 11.3188 18.7159 10.8778C19.1569 10.4368 19.755 10.1891 20.3786 10.1891Z" fill="white"/>
<path d="M3.13514 58C4.38192 57.9986 5.57723 57.5026 6.45884 56.621C7.34046 55.7394 7.83639 54.5441 7.83784 53.2973V47.027C7.83784 46.6113 7.67268 46.2126 7.37871 45.9186C7.08473 45.6246 6.68602 45.4595 6.27027 45.4595C5.85453 45.4595 5.45581 45.6246 5.16183 45.9186C4.86786 46.2126 4.7027 46.6113 4.7027 47.027V53.2973C4.7027 53.7131 4.53755 54.1118 4.24357 54.4057C3.9496 54.6997 3.55088 54.8649 3.13514 54.8649H1.56757C1.15182 54.8649 0.753106 55.03 0.45913 55.324C0.165154 55.618 0 56.0167 0 56.4324C0 56.8482 0.165154 57.2469 0.45913 57.5409C0.753106 57.8349 1.15182 58 1.56757 58H3.13514Z" fill="white"/>
<path d="M12.5404 56.4324V53.2973H14.108C15.1473 53.2973 16.1441 52.8844 16.8791 52.1495C17.614 51.4145 18.0269 50.4178 18.0269 49.3784C18.0269 48.339 17.614 47.3422 16.8791 46.6073C16.1441 45.8724 15.1473 45.4595 14.108 45.4595H10.9728C10.5571 45.4595 10.1584 45.6246 9.8644 45.9186C9.57043 46.2126 9.40527 46.6113 9.40527 47.027V56.4324C9.40527 56.8482 9.57043 57.2469 9.8644 57.5409C10.1584 57.8349 10.5571 58 10.9728 58C11.3886 58 11.7873 57.8349 12.0813 57.5409C12.3753 57.2469 12.5404 56.8482 12.5404 56.4324ZM12.5404 48.5946H14.108C14.3158 48.5946 14.5152 48.6772 14.6622 48.8242C14.8092 48.9712 14.8918 49.1705 14.8918 49.3784C14.8918 49.5863 14.8092 49.7856 14.6622 49.9326C14.5152 50.0796 14.3158 50.1622 14.108 50.1622H12.5404V48.5946Z" fill="white"/>
<path d="M26.6488 48.5946C27.0645 48.5946 27.4632 48.4295 27.7572 48.1355C28.0512 47.8415 28.2163 47.4428 28.2163 47.027C28.2163 46.6113 28.0512 46.2126 27.7572 45.9186C27.4632 45.6246 27.0645 45.4595 26.6488 45.4595H21.1623C20.7465 45.4595 20.3478 45.6246 20.0539 45.9186C19.7599 46.2126 19.5947 46.6113 19.5947 47.027V56.4324C19.5947 56.8482 19.7599 57.2469 20.0539 57.5409C20.3478 57.8349 20.7465 58 21.1623 58H26.6488C27.0645 58 27.4632 57.8349 27.7572 57.5409C28.0512 57.2469 28.2163 56.8482 28.2163 56.4324C28.2163 56.0167 28.0512 55.618 27.7572 55.324C27.4632 55.03 27.0645 54.8649 26.6488 54.8649H22.7299V53.2973H26.6488C27.0645 53.2973 27.4632 53.1322 27.7572 52.8382C28.0512 52.5442 28.2163 52.1455 28.2163 51.7297C28.2163 51.314 28.0512 50.9153 27.7572 50.6213C27.4632 50.3273 27.0645 50.1622 26.6488 50.1622H22.7299V48.5946H26.6488Z" fill="white"/>
<path d="M34.4864 48.5946H39.1891C39.6048 48.5946 40.0036 48.4295 40.2975 48.1355C40.5915 47.8415 40.7567 47.4428 40.7567 47.027C40.7567 46.6113 40.5915 46.2126 40.2975 45.9186C40.0036 45.6246 39.6048 45.4595 39.1891 45.4595H34.4864C33.2396 45.4609 32.0443 45.9569 31.1627 46.8385C30.2811 47.7201 29.7851 48.9154 29.7837 50.1622V53.2973C29.7851 54.5441 30.2811 55.7394 31.1627 56.621C32.0443 57.5026 33.2396 57.9986 34.4864 58H39.1891C39.6048 58 40.0036 57.8349 40.2975 57.5409C40.5915 57.2469 40.7567 56.8482 40.7567 56.4324V51.7297C40.7567 51.314 40.5915 50.9153 40.2975 50.6213C40.0036 50.3273 39.6048 50.1622 39.1891 50.1622H36.054C35.6382 50.1622 35.2395 50.3273 34.9455 50.6213C34.6515 50.9153 34.4864 51.314 34.4864 51.7297C34.4864 52.1455 34.6515 52.5442 34.9455 52.8382C35.2395 53.1322 35.6382 53.2973 36.054 53.2973H37.6215V54.8649H34.4864C34.0706 54.8649 33.6719 54.6997 33.378 54.4057C33.084 54.1118 32.9188 53.7131 32.9188 53.2973V50.1622C32.9188 49.7464 33.084 49.3477 33.378 49.0537C33.6719 48.7598 34.0706 48.5946 34.4864 48.5946Z" fill="white"/>
</svg>
