<svg width="121" height="124" viewBox="0 0 121 124" fill="none" xmlns="http://www.w3.org/2000/svg">
<path d="M119.278 51.1393C118.185 50.3071 116.798 50.036 115.47 50.4023L84.4798 58.9357C82.5897 59.4558 81.2696 61.1877 81.2696 63.1481V66.0492V74.3305V94.7838C79.1423 92.426 76.0739 90.9327 72.6557 90.9327C66.2513 90.9327 61.041 96.143 61.041 102.547C61.041 108.952 66.2513 114.162 72.6557 114.162C79.0601 114.162 84.2703 108.952 84.2703 102.547V75.4733L117.999 66.1867V84.6706C115.872 82.313 112.804 80.8199 109.387 80.8199C102.982 80.8199 97.7721 86.0302 97.7721 92.4331C97.7721 98.8375 102.982 104.048 109.387 104.048C115.79 104.048 121 98.8375 121 92.4331V64.2177V55.9349V54.6162C121 53.2404 120.373 51.973 119.278 51.1393Z" fill="url(#paint0_linear_12_84)"/>
<path d="M72.326 43.0353C76.8183 43.0353 80.4725 39.3811 80.4725 34.8888V17.488L101.609 11.6681V21.9329C100.206 20.7853 98.4141 20.0947 96.4637 20.0947C91.9714 20.0947 88.3157 23.7504 88.3157 28.2427C88.3157 32.735 91.9714 36.3892 96.4637 36.3892C100.956 36.3892 104.61 32.735 104.61 28.2427V9.69907V4.25732V3.38992C104.61 2.32325 104.124 1.34156 103.275 0.69541C102.429 0.0507218 101.355 -0.161733 100.324 0.125447L79.9597 5.73277C78.4945 6.1357 77.4718 7.47783 77.4718 8.99724V10.9035V16.3452V28.5798C76.0678 27.4326 74.2764 26.7423 72.326 26.7423C67.8337 26.7423 64.1794 30.3965 64.1794 34.8888C64.1794 39.3811 67.8337 43.0353 72.326 43.0353Z" fill="url(#paint1_linear_12_84)"/>
<path d="M53.7018 48.839H51.3612C53.1486 45.36 54.0989 41.5071 54.0989 37.5408C54.0989 23.8778 42.9839 12.7628 29.3209 12.7628C15.6579 12.7628 4.54286 23.8778 4.54286 37.5408C4.54286 41.5071 5.49313 45.36 7.28059 48.839H4.93993C2.76115 48.839 0.988281 50.6119 0.988281 52.7921V66.3467C0.988281 68.5269 2.76115 70.2998 4.93993 70.2998H14.943L17.1861 103.743C17.3824 106.694 19.8571 109.005 22.8198 109.005H27.8205V114.638C27.8205 119.267 31.5861 123.032 36.2147 123.032H52.6015C53.4308 123.032 54.1018 122.361 54.1018 121.532C54.1018 120.703 53.4308 120.032 52.6015 120.032H36.2147C33.2403 120.032 30.8212 117.613 30.8212 114.638V109.005H35.822C38.7846 109.005 41.2593 106.694 41.4557 103.745L43.6988 70.2998H53.7018C55.882 70.2998 57.6549 68.5269 57.6549 66.3467V52.7921C57.6549 50.6119 55.882 48.839 53.7018 48.839ZM29.3209 20.0185C30.1502 20.0185 30.8212 20.6896 30.8212 21.5189C30.8212 22.3482 30.1502 23.0192 29.3209 23.0192C21.9524 23.0192 15.7531 28.5313 14.8989 35.8427C14.8095 36.606 14.1619 37.1687 13.4103 37.1687C13.3531 37.1687 13.2945 37.1658 13.2344 37.1584C12.4125 37.0632 11.822 36.3174 11.9187 35.494C12.9487 26.672 20.43 20.0185 29.3209 20.0185ZM14.8007 44.4932C14.6293 44.5562 14.4549 44.5855 14.2821 44.5855C13.6711 44.5855 13.0967 44.2104 12.874 43.6038C12.6601 43.0222 12.4755 42.4229 12.326 41.8222C12.1238 41.0192 12.6132 40.2046 13.4176 40.0038C14.2161 39.8002 15.0352 40.291 15.2359 41.0954C15.3604 41.5936 15.5128 42.0844 15.6901 42.5665C15.9758 43.3445 15.5773 44.2075 14.8007 44.4932ZM54.6542 66.3467C54.6542 66.8712 54.2264 67.2991 53.7018 67.2991H42.2952H16.3465H4.93993C4.41539 67.2991 3.98901 66.8712 3.98901 66.3467V52.7921C3.98901 52.2676 4.41539 51.8397 4.93993 51.8397H9.87473H48.767H53.7018C54.2264 51.8397 54.6542 52.2676 54.6542 52.7921V66.3467Z" fill="url(#paint2_linear_12_84)"/>
<defs>
<linearGradient id="paint0_linear_12_84" x1="59.548" y1="113.106" x2="134.773" y2="53.6488" gradientUnits="userSpaceOnUse">
<stop stop-color="#5B4BCA"/>
<stop offset="1" stop-color="#0ACFF1"/>
</linearGradient>
<linearGradient id="paint1_linear_12_84" x1="63.1727" y1="42.3244" x2="113.837" y2="2.21778" gradientUnits="userSpaceOnUse">
<stop stop-color="#5B4BCA"/>
<stop offset="1" stop-color="#0ACFF1"/>
</linearGradient>
<linearGradient id="paint2_linear_12_84" x1="-0.422715" y1="121.211" x2="96.8479" y2="79.0919" gradientUnits="userSpaceOnUse">
<stop stop-color="#5B4BCA"/>
<stop offset="1" stop-color="#0ACFF1"/>
</linearGradient>
</defs>
</svg>
