<svg width="1379" height="532" viewBox="762 0 617 532" fill="none" xmlns="http://www.w3.org/2000/svg">
  
<path d="M1251 344C1251 346.318 1251 348.652 1251 351" stroke="#3D338F" stroke-width="8" stroke-linecap="round" stroke-linejoin="round"/>
<path d="M884 168.404C888.747 137.535 903.473 81.1995 949.415 40.4745C1015.62 -18.2323 1245.59 -55.4858 1251 336" stroke="#3D338E" stroke-width="8" stroke-linecap="round" stroke-linejoin="round" stroke-dasharray="25.5 25.5"/>
<path d="M881 191C881 191 881.083 188.47 882 184" stroke="#3D338F" stroke-width="8" stroke-linecap="round" stroke-linejoin="round"/>
<path d="M1251.46 484.325C1250.64 484.098 1249.78 483.988 1248.92 484.001C1247.42 483.986 1245.95 484.363 1244.64 485.094C1243.09 485.951 1241.83 487.245 1241.02 488.815C1240.2 490.386 1239.86 492.162 1240.05 493.923C1240.24 495.684 1240.93 497.351 1242.06 498.716C1243.19 500.081 1244.69 501.083 1246.38 501.597C1247.21 501.869 1248.09 502.005 1248.96 502C1251.14 502.011 1253.24 501.232 1254.89 499.808C1256.53 498.384 1257.61 496.412 1257.91 494.255C1258.22 492.099 1257.73 489.905 1256.55 488.079C1255.36 486.253 1253.55 484.92 1251.46 484.325Z" fill="#3D338F"/>
<path d="M1207.47 484.324C1206.66 484.108 1205.82 483.999 1204.98 484C1203.04 483.995 1201.16 484.619 1199.6 485.778C1198.05 486.938 1196.91 488.57 1196.36 490.432C1195.7 492.718 1195.96 495.171 1197.08 497.267C1197.63 498.308 1198.39 499.227 1199.3 499.971C1200.22 500.715 1201.27 501.268 1202.4 501.597C1203.25 501.869 1204.13 502.005 1205.02 502C1207.19 502 1209.28 501.215 1210.92 499.787C1212.55 498.36 1213.62 496.388 1213.91 494.234C1214.21 492.08 1213.73 489.891 1212.54 488.07C1211.36 486.248 1209.56 484.918 1207.47 484.324Z" fill="#3D338F"/>
<path d="M1161 502C1162.78 502 1164.52 501.472 1166 500.483C1167.48 499.494 1168.63 498.089 1169.31 496.444C1170 494.8 1170.17 492.99 1169.83 491.244C1169.48 489.498 1168.62 487.895 1167.36 486.636C1166.11 485.377 1164.5 484.52 1162.76 484.173C1161.01 483.826 1159.2 484.004 1157.56 484.685C1155.91 485.366 1154.51 486.52 1153.52 488C1152.53 489.48 1152 491.22 1152 493C1152 495.387 1152.95 497.676 1154.64 499.364C1156.32 501.052 1158.61 502 1161 502Z" fill="#3D338F"/>
<path d="M1376.53 462.294H1351.23V368.725C1351.08 366.639 1350.15 364.687 1348.62 363.261C1347.09 361.836 1345.07 361.043 1342.98 361.043C1340.88 361.043 1338.87 361.836 1337.33 363.261C1335.8 364.687 1334.87 366.639 1334.72 368.725V462.294H1167.32V368.725C1167.18 366.631 1166.25 364.667 1164.71 363.233C1163.18 361.798 1161.16 361 1159.06 361C1156.95 361 1154.93 361.798 1153.4 363.233C1151.86 364.667 1150.93 366.631 1150.8 368.725V462.294H1125.44C1124.79 462.294 1124.17 462.551 1123.71 463.008C1123.26 463.465 1123 464.085 1123 464.732V521.574C1123 522.221 1123.26 522.841 1123.71 523.298C1124.17 523.755 1124.79 524.012 1125.44 524.012H1141.03V528.003C1141.03 529.063 1141.45 530.08 1142.2 530.829C1142.95 531.579 1143.97 532 1145.03 532H1173.47C1174.49 531.947 1175.46 531.503 1176.17 530.759C1176.87 530.015 1177.27 529.029 1177.27 528.003V524.012H1325.24V528.003C1325.24 529.023 1325.63 530.004 1326.33 530.747C1327.03 531.49 1327.99 531.938 1329.01 532H1357.44C1358.5 532 1359.52 531.579 1360.27 530.829C1361.02 530.08 1361.44 529.063 1361.44 528.003V524.012H1377C1377.57 523.907 1378.08 523.605 1378.44 523.158C1378.81 522.712 1379.01 522.151 1379 521.574V464.732C1379.01 464.415 1378.95 464.099 1378.84 463.804C1378.72 463.509 1378.55 463.239 1378.33 463.012C1378.11 462.785 1377.84 462.604 1377.55 462.481C1377.26 462.358 1376.94 462.294 1376.62 462.294H1376.53ZM1161.22 478.034C1164.2 478.041 1167.11 478.93 1169.59 480.59C1172.06 482.25 1173.99 484.605 1175.13 487.358C1176.26 490.112 1176.56 493.14 1175.97 496.059C1175.38 498.979 1173.94 501.66 1171.83 503.763C1169.72 505.865 1167.03 507.296 1164.11 507.874C1161.18 508.451 1158.15 508.15 1155.4 507.008C1152.64 505.866 1150.29 503.934 1148.64 501.457C1146.98 498.98 1146.1 496.069 1146.1 493.091C1146.1 491.11 1146.49 489.149 1147.25 487.319C1148.01 485.49 1149.12 483.828 1150.53 482.429C1151.93 481.03 1153.6 479.922 1155.43 479.168C1157.27 478.414 1159.23 478.028 1161.22 478.034ZM1219.47 497.414C1218.54 500.524 1216.62 503.25 1214.02 505.186C1211.41 507.123 1208.24 508.166 1204.99 508.16C1203.54 508.156 1202.1 507.957 1200.71 507.567C1197.85 506.718 1195.31 505.041 1193.4 502.749C1191.5 500.457 1190.32 497.652 1190.01 494.689C1189.7 491.726 1190.28 488.739 1191.67 486.104C1193.06 483.468 1195.2 481.304 1197.82 479.885C1200.45 478.466 1203.43 477.855 1206.4 478.13C1209.37 478.404 1212.19 479.552 1214.51 481.428C1216.83 483.305 1218.53 485.825 1219.42 488.67C1220.3 491.515 1220.32 494.558 1219.47 497.414ZM1263.46 497.414C1262.52 500.524 1260.6 503.248 1257.98 505.184C1255.37 507.119 1252.2 508.162 1248.94 508.16C1247.5 508.156 1246.06 507.957 1244.66 507.567C1241.8 506.714 1239.25 505.031 1237.34 502.732C1235.43 500.432 1234.25 497.619 1233.94 494.649C1233.64 491.678 1234.22 488.683 1235.62 486.043C1237.01 483.402 1239.16 481.235 1241.79 479.815C1244.42 478.395 1247.42 477.786 1250.39 478.064C1253.37 478.343 1256.2 479.498 1258.52 481.381C1260.84 483.265 1262.55 485.794 1263.43 488.648C1264.31 491.502 1264.32 494.552 1263.47 497.414H1263.46Z" fill="#3E3491"/>
<path d="M1242 415.58C1242.02 417.455 1242.56 419.284 1243.55 420.836C1244.55 422.388 1245.96 423.593 1247.61 424.3C1249.25 425.006 1251.06 425.183 1252.8 424.808C1254.54 424.432 1256.14 423.521 1257.39 422.189C1258.64 420.858 1259.49 419.165 1259.83 417.324C1260.17 415.483 1259.99 413.577 1259.31 411.846C1258.62 410.115 1257.47 408.636 1255.99 407.596C1254.51 406.555 1252.78 406 1251 406C1249.81 405.999 1248.63 406.247 1247.54 406.729C1246.44 407.211 1245.44 407.918 1244.61 408.809C1243.77 409.7 1243.11 410.757 1242.66 411.919C1242.21 413.081 1241.99 414.326 1242 415.58Z" fill="#3E3491"/>
<path d="M1269.42 405C1270.32 405.006 1271.21 404.756 1271.96 404.279C1272.71 403.803 1273.3 403.123 1273.65 402.325C1274 401.527 1274.09 400.648 1273.91 399.799C1273.74 398.951 1273.31 398.171 1272.67 397.559C1266.91 392.077 1259.12 389 1251.01 389C1242.89 389 1235.1 392.077 1229.34 397.559C1228.5 398.377 1228.01 399.481 1228 400.635C1228 401.49 1228.27 402.326 1228.77 403.037C1229.26 403.749 1229.96 404.305 1230.79 404.637C1231.61 404.969 1232.51 405.062 1233.39 404.905C1234.27 404.747 1235.08 404.346 1235.72 403.751C1235.73 403.739 1235.75 403.726 1235.76 403.711C1239.8 399.846 1245.28 397.676 1250.99 397.676C1256.69 397.676 1262.17 399.846 1266.21 403.711C1266.63 404.122 1267.13 404.448 1267.68 404.669C1268.23 404.891 1268.82 405.003 1269.42 405Z" fill="#3E3491"/>
<path d="M1222.48 391C1223.68 390.993 1224.82 390.516 1225.68 389.668C1232.42 382.896 1241.54 379.095 1251.05 379.095C1260.56 379.095 1269.68 382.896 1276.42 389.668C1277.27 390.486 1278.41 390.935 1279.58 390.919C1280.75 390.903 1281.87 390.423 1282.7 389.582C1283.52 388.742 1283.99 387.607 1284 386.422C1284.01 385.237 1283.56 384.096 1282.74 383.244C1274.32 374.763 1262.92 370 1251.03 370C1239.14 370 1227.74 374.763 1219.32 383.244C1218.48 384.093 1218.01 385.239 1218 386.435C1218.01 387.645 1218.48 388.805 1219.32 389.668C1219.73 390.09 1220.23 390.425 1220.77 390.653C1221.31 390.882 1221.89 391 1222.48 391Z" fill="#3E3491"/>
<path d="M1021.65 312C1021.61 311.999 1021.57 312.009 1021.53 312.026C1021.49 312.044 1021.46 312.071 1021.44 312.103C1021.41 312.136 1021.39 312.174 1021.38 312.215C1021.38 312.255 1021.38 312.297 1021.39 312.337C1022.05 314.774 1022.15 317.331 1021.66 319.81C1021.17 322.289 1020.12 324.622 1018.58 326.629C1017.05 328.636 1015.07 330.262 1012.8 331.382C1010.53 332.502 1008.03 333.084 1005.5 333.085H762.431C758.812 333.091 755.292 331.906 752.416 329.713C749.541 327.521 747.471 324.443 746.528 320.958C746.515 320.892 746.477 320.833 746.421 320.794C746.366 320.755 746.298 320.738 746.231 320.747C746.164 320.756 746.103 320.79 746.06 320.842C746.017 320.895 745.996 320.961 746.001 321.029V410.517C746.002 415.418 747.955 420.119 751.429 423.585C754.904 427.051 759.615 428.998 764.529 429H1003.47C1008.39 429 1013.1 427.053 1016.57 423.586C1020.05 420.12 1022 415.419 1022 410.517V312.367C1022 312.274 1021.96 312.185 1021.9 312.12C1021.83 312.055 1021.74 312.018 1021.65 312.018V312Z" fill="#3D338E"/>
<path d="M0.500369 438.48C0.380082 438.48 0.264569 438.527 0.178584 438.611C0.0925995 438.695 0.0429834 438.81 0.0403685 438.93V439C0.0360566 439.113 0.0742009 439.223 0.147252 439.309C0.220303 439.395 0.322937 439.45 0.434841 439.464C0.546745 439.478 0.659764 439.449 0.751529 439.383C0.843294 439.318 0.907118 439.22 0.930369 439.11V439.06C0.950633 438.993 0.954917 438.922 0.942881 438.853C0.930845 438.784 0.902821 438.718 0.861046 438.662C0.819271 438.606 0.764902 438.56 0.702279 438.528C0.639656 438.497 0.570513 438.48 0.500369 438.48Z" fill="#CABAE8"/>
<path d="M1005.54 329H762.462C759.688 328.999 756.959 328.3 754.528 326.965C752.097 325.631 750.044 323.706 748.559 321.368C747.073 319.03 746.204 316.356 746.032 313.594C745.86 310.831 746.39 308.07 747.573 305.567L787.363 221.413C788.695 218.598 790.801 216.218 793.438 214.551C796.074 212.884 799.131 211.999 802.252 212H966.792C969.942 212 973.025 212.902 975.677 214.597C978.328 216.293 980.437 218.712 981.752 221.567L1020.5 305.721C1021.65 308.223 1022.15 310.974 1021.96 313.72C1021.77 316.467 1020.89 319.121 1019.4 321.439C1017.91 323.757 1015.86 325.664 1013.44 326.985C1011.01 328.307 1008.3 328.999 1005.54 329Z" fill="#3D338E"/>
<path d="M857 230V276H911V230H857ZM907.955 273.407H860.039V232.599H907.955V273.407Z" fill="white"/>
<path d="M840 298.693V284.717H851.787C854.964 284.717 856.194 285.557 856.194 287.893V289.041C856.194 290.68 855.559 291.275 854.677 291.52C855.682 291.725 856.379 292.361 856.379 294.43V295.66C856.379 297.873 855.169 298.693 851.992 298.693H840ZM851.93 292.73H843.116V296.152H851.828C852.996 296.152 853.468 295.885 853.468 295.025V294.164C853.468 293.016 853.058 292.73 851.93 292.73ZM851.541 287.258H843.116V290.475H851.848C852.935 290.475 853.283 290.168 853.283 289.246V288.365C853.283 287.525 852.853 287.258 851.541 287.258Z" fill="white"/>
<path d="M861.533 298.693H858.418V284H861.533V298.693Z" fill="white"/>
<path d="M872.88 298.693H869.17C865.05 298.693 863.84 297.422 863.84 293.898V292.402C863.84 288.857 865.05 287.586 869.17 287.586H872.88C877.021 287.586 878.23 288.857 878.23 292.422V293.898C878.23 297.422 877.021 298.693 872.88 298.693ZM875.176 293.816V292.504C875.176 290.619 874.684 290.209 872.47 290.209H869.58C867.407 290.209 866.895 290.619 866.895 292.504V293.816C866.895 295.66 867.407 296.111 869.58 296.111H872.47C874.684 296.111 875.176 295.66 875.176 293.816Z" fill="white"/>
<path d="M894.19 298.693H890.07L883.613 293.447V298.693H880.538V284H883.613V292.73L890.029 287.586H894.006L887.098 292.934L894.19 298.693Z" fill="white"/>
<path d="M903.711 298.693H900.575V287.402H894.712V284.717H909.574V287.402H903.711V298.693Z" fill="white"/>
<path d="M929 287.586L921.682 297.955C921.231 298.57 920.677 299 919.591 299C918.464 299 917.931 298.59 917.48 297.955L910.161 287.586H913.81L919.632 296.09L925.392 287.586H929Z" fill="white"/>
<path d="M862 234V271H906V234H862ZM883.964 261.05L882.838 259.007L876.353 247.93H878.695L884.024 257.023L889.347 247.93H891.671L883.964 261.05ZM882.988 254.006V252.01H885.012V254.006H882.988ZM892.814 245.916H885.03V251.284H883.006V245.916H875.222L874.054 243.932H894.012L892.814 245.916Z" fill="white"/>
</svg>
