<svg width="226" height="110" viewBox="0 0 226 110" fill="none" xmlns="http://www.w3.org/2000/svg">
<path d="M212.758 0H205.277H189.557H175.218H159.498H145.348H129.628H96.4666H80.7467H66.4077H50.6878H36.538H20.818H13.2418C5.94936 0 0 5.936 0 13.2121V96.7879C0 104.064 5.94936 110 13.2418 110H212.758C220.051 110 226 104.064 226 96.7879V13.2215C226 5.936 220.051 0 212.758 0ZM189.557 69.7786H195.544V102.46H169.051V69.7786H175.218C176.92 69.7786 178.301 68.08 178.301 66.0038V7.5592H186.464V65.9943C186.473 68.08 187.854 69.7786 189.557 69.7786ZM36.538 69.7786C38.2405 69.7786 39.6214 68.08 39.6214 66.0038V7.5592H47.6043V65.9943C47.6043 68.08 48.9853 69.7692 50.6878 69.7692H56.7601V102.45H30.4562V69.7692L36.538 69.7786ZM60.3354 69.7786H66.4077C68.1102 69.7786 69.4912 68.08 69.4912 66.0038V7.5592H77.6538V65.9943C77.6538 68.08 79.0347 69.7692 80.7372 69.7692H86.8096V102.45H60.3354V69.7786ZM90.3849 69.7786H96.4572C98.1597 69.7786 99.5406 68.08 99.5406 66.0038V7.5592H111.07V102.46H90.3849V69.7786ZM114.92 7.5592H126.544V65.9943C126.544 68.08 127.925 69.7692 129.628 69.7692H135.615V102.45H114.92V7.5592ZM139.181 69.7786H145.348C147.05 69.7786 148.431 68.08 148.431 66.0038V7.5592H156.414V65.9943C156.414 68.08 157.795 69.7692 159.498 69.7692H165.485V102.45H139.181V69.7786ZM7.57621 96.7974V13.2215C7.57621 10.0978 10.1205 7.5592 13.2513 7.5592H17.744V65.9943C17.744 68.08 19.125 69.7692 20.8275 69.7692H26.8998V102.45H13.2418C10.1111 102.46 7.57621 99.9211 7.57621 96.7974ZM218.424 96.7974C218.424 99.9211 215.879 102.46 212.749 102.46H199.1V69.7786H205.267C206.97 69.7786 208.351 68.08 208.351 66.0038V7.5592H212.749C215.879 7.5592 218.424 10.0978 218.424 13.2215V96.7974Z" fill="url(#paint0_linear_1_155)"/>
<defs>
<linearGradient id="paint0_linear_1_155" x1="113" y1="0" x2="113" y2="131" gradientUnits="userSpaceOnUse">
<stop stop-color="#5E46C9"/>
<stop offset="1" stop-color="#08D3F2"/>
</linearGradient>
</defs>
</svg>
