<svg width="111" height="58" viewBox="0 0 111 58" fill="none" xmlns="http://www.w3.org/2000/svg">
<g filter="url(#filter0_d_1_68)">
<path d="M107 38.8756C107 40.1794 106.491 41.4317 105.581 42.3654L99.6117 48.4898C98.6705 49.4554 97.3793 50 96.031 50H28.7797H9C6.23858 50 4 47.7614 4 45V12.9852C4 11.9047 4.35 10.8533 4.99758 9.98841L10.9764 2.00323C11.9205 0.742302 13.4036 0 14.9788 0H102C104.761 0 107 2.23857 107 5V34.434V38.8756Z" fill="url(#paint0_linear_1_68)" shape-rendering="crispEdges"/>
<path d="M107 38.8756C107 40.1794 106.491 41.4317 105.581 42.3654L99.6117 48.4898C98.6705 49.4554 97.3793 50 96.031 50H28.7797H9C6.23858 50 4 47.7614 4 45V12.9852C4 11.9047 4.35 10.8533 4.99758 9.98841L10.9764 2.00323C11.9205 0.742302 13.4036 0 14.9788 0H102C104.761 0 107 2.23857 107 5V34.434V38.8756Z" fill="url(#paint1_linear_1_68)" shape-rendering="crispEdges"/>
<path d="M106.5 38.8756C106.5 40.049 106.042 41.176 105.223 42.0164L99.2536 48.1408C98.4066 49.0099 97.2445 49.5 96.031 49.5H28.7797H9C6.51472 49.5 4.5 47.4853 4.5 45V12.9852C4.5 12.0128 4.81499 11.0665 5.39783 10.2881L11.3766 2.30291C12.2263 1.16807 13.5611 0.5 14.9788 0.5H102C104.485 0.5 106.5 2.51472 106.5 5V34.434V38.8756Z" stroke="url(#paint2_linear_1_68)" shape-rendering="crispEdges"/>
</g>
<defs>
<filter id="filter0_d_1_68" x="0" y="0" width="111" height="58" filterUnits="userSpaceOnUse" color-interpolation-filters="sRGB">
<feFlood flood-opacity="0" result="BackgroundImageFix"/>
<feColorMatrix in="SourceAlpha" type="matrix" values="0 0 0 0 0 0 0 0 0 0 0 0 0 0 0 0 0 0 127 0" result="hardAlpha"/>
<feOffset dy="4"/>
<feGaussianBlur stdDeviation="2"/>
<feComposite in2="hardAlpha" operator="out"/>
<feColorMatrix type="matrix" values="0 0 0 0 0 0 0 0 0 0 0 0 0 0 0 0 0 0 0.25 0"/>
<feBlend mode="normal" in2="BackgroundImageFix" result="effect1_dropShadow_1_68"/>
<feBlend mode="normal" in="SourceGraphic" in2="effect1_dropShadow_1_68" result="shape"/>
</filter>
<linearGradient id="paint0_linear_1_68" x1="101.85" y1="59.5" x2="86.997" y2="-6.89009" gradientUnits="userSpaceOnUse">
<stop stop-color="#584FCC"/>
<stop offset="1" stop-color="#584FCC" stop-opacity="0"/>
</linearGradient>
<linearGradient id="paint1_linear_1_68" x1="23.57" y1="-23" x2="36.7743" y2="35.4528" gradientUnits="userSpaceOnUse">
<stop stop-color="#02DBF5"/>
<stop offset="1" stop-color="#584FCC" stop-opacity="0"/>
</linearGradient>
<linearGradient id="paint2_linear_1_68" x1="116.997" y1="53.5" x2="58.0294" y2="-46.971" gradientUnits="userSpaceOnUse">
<stop offset="0.0237941" stop-color="#02DBF5"/>
<stop offset="0.452905" stop-color="#584FCC"/>
<stop offset="1" stop-color="#02DBF5"/>
</linearGradient>
</defs>
</svg>
