<svg width="125" height="92" viewBox="0 0 125 92" fill="none" xmlns="http://www.w3.org/2000/svg">
<path fill-rule="evenodd" clip-rule="evenodd" d="M121.935 81.1765H2.70968C1.21123 81.1765 0 79.9669 0 78.4706V2.70588C0 1.21224 1.21123 0 2.70968 0H121.935C123.434 0 124.645 1.21224 124.645 2.70588V78.4706C124.645 79.9669 123.434 81.1765 121.935 81.1765ZM119.226 5.41176H5.41935V75.7647H119.226V5.41176ZM54.1936 24.3529C54.7734 24.3529 55.2774 24.5748 55.7191 24.8833L76.776 38.0664C77.8219 38.4371 78.5806 39.4139 78.5806 40.5882C78.5806 41.4676 78.1335 42.2145 77.4832 42.7069L55.8763 56.1849C55.4102 56.5638 54.8385 56.8235 54.1936 56.8235C52.6951 56.8235 51.4839 55.614 51.4839 54.1176V27.0588C51.4839 25.5652 52.6951 24.3529 54.1936 24.3529ZM37.9355 86.5882H86.7097C88.2081 86.5882 89.4194 87.7978 89.4194 89.2941C89.4194 90.7905 88.2081 92 86.7097 92H37.9355C36.437 92 35.2258 90.7905 35.2258 89.2941C35.2258 87.7978 36.437 86.5882 37.9355 86.5882Z" fill="white"/>
</svg>
