<svg width="84" height="62" viewBox="0 0 84 62" fill="none" xmlns="http://www.w3.org/2000/svg">
<path d="M40.1599 46.9159L40.1599 15.0839C40.1599 14.0719 40.9879 13.3359 41.9999 13.3359L81.5599 13.3359C82.5719 13.3359 83.3999 14.1639 83.3999 15.0839L83.3999 47.0079C83.3999 48.0199 82.5719 48.7559 81.5599 48.7559L41.9999 48.7559C40.9879 48.7559 40.1599 47.9279 40.1599 46.9159ZM43.8399 16.8319L43.8399 45.1679L79.8119 45.1679L79.8119 16.8319L43.8399 16.8319Z" fill="white"/>
<path d="M72.636 28.516L72.636 20.604L69.048 20.604L69.048 28.516L72.636 28.516Z" fill="white"/>
<path d="M72.636 41.3959L72.636 33.4839L69.048 33.4839L69.048 41.3959L72.636 41.3959Z" fill="white"/>
<path d="M43.8398 51.7919L43.8398 10.2079C43.8398 4.96389 39.4238 0.639892 34.0878 0.639892L10.2598 0.639891C4.92385 0.639891 0.599846 4.96389 0.599845 10.2079L0.599844 51.6999C0.599843 57.0359 4.92384 61.3599 10.2598 61.3599L34.0878 61.3599C39.4238 61.3599 43.8398 57.0359 43.8398 51.7919ZM12.2838 46.9159L8.69584 46.9159L8.69585 15.0839L12.2838 15.0839L12.2838 46.9159Z" fill="white"/>
</svg>
